<svg xmlns="http://www.w3.org/2000/svg" xmlns:xlink="http://www.w3.org/1999/xlink" width="2000" zoomAndPan="magnify" viewBox="0 0 1500 1499.999933" height="2000" preserveAspectRatio="xMidYMid meet" version="1.0"><defs><g/><clipPath id="b922cfae55"><path d="M 426.371094 419.316406 L 1073.621094 419.316406 L 1073.621094 891 L 426.371094 891 Z M 426.371094 419.316406 " clip-rule="nonzero"/></clipPath><clipPath id="1056ea343e"><rect x="0" width="643" y="0" height="142"/></clipPath><clipPath id="a9e3f0095d"><rect x="0" width="494" y="0" height="58"/></clipPath></defs><g clip-path="url(#b922cfae55)"><path fill="#0a0a0a" d="M 1069.398438 784.710938 C 1049.746094 779.46875 1024.34375 773.363281 1020.753906 749.675781 C 1016.6875 727.210938 1018.140625 701.171875 1035.023438 684.160156 C 1034.9375 682.457031 1033.910156 681.335938 1032.023438 681.691406 C 1012.46875 680.277344 992.882812 679.210938 973.378906 677.257812 C 967.683594 676.6875 963.273438 678.011719 958.613281 680.625 C 908.855469 708.429688 859.058594 736.171875 809.246094 763.894531 C 807.929688 764.625 806.226562 765.53125 804.921875 765.273438 C 800.347656 764.023438 795.179688 763.441406 791.125 761.054688 C 861.957031 727.46875 930.644531 686.976562 999.527344 649.042969 C 985.429688 642.484375 962.972656 643.121094 958.105469 625.289062 C 953.585938 607.191406 952.453125 589.296875 963.746094 572.828125 C 968.613281 568.46875 946.296875 569.441406 943.804688 568.4375 C 917.980469 566.441406 892.171875 564.347656 866.335938 562.417969 C 858.023438 561.792969 858.90625 528.558594 860.957031 520.707031 C 862.097656 516.351562 866.023438 516.402344 868.957031 514.851562 C 906.773438 501.378906 945.582031 489.828125 983.109375 476.042969 C 943.179688 465.429688 901.132812 459.753906 861.160156 449.488281 C 908.910156 446.335938 965.203125 446.316406 1002.75 480.84375 C 1004.519531 483.644531 1010.140625 483.3125 1008.292969 479.203125 C 968.289062 433.597656 898.101562 438.96875 842.996094 444.019531 C 806.042969 449.140625 768.011719 450.695312 733.183594 465.34375 C 731.003906 466.226562 729.417969 467.175781 728.824219 469.894531 C 725.957031 486.136719 701.828125 476.828125 707.609375 462.949219 C 710.421875 455.398438 719.050781 452.839844 725.050781 458.253906 C 727.996094 460.917969 730.378906 461.070312 733.808594 459.820312 C 762.597656 449.722656 792.9375 445.507812 823.085938 441.742188 C 785.765625 433.523438 747.421875 423.242188 709.539062 419.316406 C 619.335938 439.910156 527.835938 458.65625 438.351562 480.550781 C 480 493.957031 522.410156 505.5 564.324219 518.238281 C 568.519531 519.476562 574.195312 569.320312 570.773438 570.667969 C 536.367188 583.894531 501.734375 596.621094 467.25 609.695312 C 461.929688 611.140625 463.054688 613.597656 467.960938 614.277344 C 475.707031 617.523438 491.386719 614.160156 492.878906 624.644531 C 494.625 635.851562 494.34375 646.90625 491.753906 657.972656 C 488.90625 668.121094 471.230469 664.757812 464.324219 671.542969 C 478.433594 677.34375 494.398438 678.972656 508.550781 684.558594 C 482.253906 694.398438 452.601562 698.832031 426.703125 709.183594 C 434.082031 714.253906 445.0625 714.695312 453.796875 717.371094 C 465.632812 719.753906 459.699219 752.070312 457.789062 761.035156 C 455.4375 770.71875 434.371094 768.5 426.414062 774.734375 C 542.761719 814.890625 660.246094 852.339844 777.179688 890.964844 C 876.097656 856.566406 975.441406 822.730469 1073.582031 786.339844 C 1072.191406 785.789062 1070.832031 785.128906 1069.398438 784.710938 Z M 907.949219 634.675781 C 877.988281 648.847656 846.039062 665.738281 823.324219 689.339844 C 849.75 675.21875 875.96875 658.628906 903.925781 647.554688 C 879.832031 661.261719 821.746094 694.320312 823.730469 699.964844 C 849.738281 684.011719 878.644531 671.800781 906.796875 660.894531 C 888.773438 671.855469 826.96875 700.644531 823.558594 707.339844 C 837.34375 703.296875 867.15625 688.714844 869.378906 689.457031 C 851.335938 701.441406 828.101562 707.253906 814.316406 724.542969 C 811.621094 727.574219 809.496094 731.953125 805.785156 733.691406 C 820.214844 715.054688 821.867188 688.398438 806.34375 669.878906 C 805.210938 668.792969 805.644531 668.339844 806.9375 667.753906 C 812.019531 665.910156 816.65625 662.15625 821.972656 661.371094 C 807.855469 671.550781 815.566406 669.6875 820.433594 682.792969 C 847.96875 663.828125 877.125 643.714844 908.996094 633.777344 C 908.652344 634.082031 908.351562 634.480469 907.949219 634.675781 Z M 910.648438 618.234375 C 879.851562 636.464844 849.933594 656.160156 818.664062 673.515625 C 817.175781 671.960938 814.984375 670.074219 817.734375 668.328125 C 849.964844 650.109375 881.988281 631.019531 915.210938 614.804688 C 913.699219 615.949219 912.277344 617.253906 910.648438 618.234375 Z M 939.800781 654.5 C 942.488281 651.070312 950.320312 649.472656 947.65625 644.035156 C 941.226562 629.789062 939.089844 612.636719 943.730469 597.65625 C 944.839844 600.460938 943.976562 603.773438 944.234375 606.78125 C 944.03125 606.804688 943.824219 606.835938 943.621094 606.855469 C 945.820312 620.125 944.753906 635.601562 955.421875 645.546875 C 956.84375 646.839844 957.382812 647.898438 955.140625 648.945312 C 949.554688 651.167969 944.375 654.964844 938.550781 656.289062 C 938.960938 655.6875 939.261719 654.953125 939.800781 654.5 Z M 496.867188 491.445312 C 494.96875 491.023438 493.058594 490.613281 491.335938 489.675781 C 568.464844 500.613281 644.746094 521.117188 715.4375 554.394531 C 718.015625 555.601562 720.121094 555.773438 722.796875 554.4375 C 791.957031 520.050781 866.617188 495.683594 942.347656 482.566406 C 579.726562 589.308594 856.800781 580.355469 496.867188 491.445312 Z M 854.472656 557.199219 C 794.71875 630.78125 647.152344 626.359375 582.015625 562.09375 C 661.195312 613.609375 779.433594 619.183594 854.472656 557.199219 Z M 524.503906 610.234375 C 604.234375 620.855469 683.457031 633.917969 761.550781 653.171875 C 771.453125 655.523438 780.921875 659.117188 789.648438 664.476562 C 790.941406 665.273438 791.902344 665.996094 793.648438 664.410156 C 813.691406 645.515625 839.578125 634.675781 862.941406 620.554688 C 887.445312 607.914062 911.695312 591.972656 936.566406 581.367188 C 892.828125 610.253906 844.722656 633.21875 802.074219 663.839844 C 799.226562 666.277344 797.8125 668.683594 799.949219 672.804688 C 803.066406 679.1875 804.230469 686.589844 803.992188 693.707031 C 800.347656 680.515625 795.699219 665.761719 780.867188 661.929688 C 770.039062 658.566406 759.242188 654.832031 748.164062 652.515625 C 673.058594 637.132812 597.234375 625.441406 522.011719 610.730469 C 522.980469 610.535156 523.953125 610.351562 524.503906 610.234375 Z M 501.386719 672.449219 C 500.730469 672.265625 500.09375 672.003906 499.445312 671.789062 C 548.492188 679.328125 597.632812 693.773438 646.902344 700.234375 C 596.792969 687.277344 544.328125 679.082031 494.417969 666.859375 C 518.675781 666.503906 680.707031 703.328125 736.417969 712.863281 C 657.054688 693.4375 576.511719 677.550781 496.78125 660.28125 C 504.761719 650.539062 543.03125 663.777344 556.429688 661.347656 C 541.933594 658.4375 527.1875 656.59375 512.582031 654.144531 C 506.261719 652.773438 502.164062 652.105469 496.769531 656.914062 C 497.007812 647.144531 498.9375 637.414062 498.734375 627.597656 C 552.523438 637.058594 606.585938 648.554688 660.449219 655.976562 C 627.984375 648.609375 528.265625 629.410156 511.148438 626.011719 C 506.53125 624.417969 500.09375 624.652344 496.964844 620.640625 C 543.972656 627.640625 590.859375 636.894531 637.777344 644.921875 C 669.523438 654.335938 784.914062 659.214844 789.789062 694.300781 C 791.652344 707.492188 790.8125 742.503906 772.90625 739.589844 C 682.183594 718.492188 591.820312 694.9375 501.386719 672.449219 Z M 780.402344 822.179688 C 780.125 834.605469 776.910156 868.636719 758.21875 861.660156 C 661.703125 833.839844 564.714844 806.164062 468.878906 776.675781 C 523.757812 787.945312 578.789062 806.046875 634.035156 815.761719 C 576.609375 799.066406 517.816406 786.1875 460.269531 770.265625 C 552.914062 785.539062 644.132812 815.234375 736.082031 834.769531 C 646.859375 809.347656 556.601562 786.511719 466.398438 764.648438 C 463.054688 763.945312 462.15625 762.910156 463.011719 759.609375 C 465.542969 749.839844 466.3125 739.96875 465.316406 729.949219 C 465.113281 727.910156 465.976562 728.179688 467.464844 728.515625 C 527.835938 741.199219 588.195312 756.394531 648.671875 767.464844 C 590.988281 752.492188 532.667969 739.730469 474.679688 725.902344 C 471.476562 724.695312 467.164062 724.285156 465.089844 721.351562 C 536.074219 733.789062 607.5 750.863281 678.582031 765.046875 C 707.574219 772.714844 787.265625 781.074219 780.402344 822.179688 Z M 773.132812 775.691406 C 749.664062 764.960938 724.316406 760.042969 699.484375 753.636719 C 711.652344 753.300781 724.371094 758.542969 736.730469 760.679688 C 750.492188 764.054688 764.234375 767.871094 776.261719 775.640625 C 781.632812 779.113281 785.019531 778.894531 790.617188 775.371094 C 857.871094 742.40625 929.449219 716.164062 1000.214844 691.722656 C 932.585938 723.121094 861.785156 747.671875 794.953125 780.621094 C 790.921875 782.800781 791.179688 783.15625 792.753906 787.394531 C 795.851562 796.402344 798.4375 806.230469 796.507812 815.71875 C 794.695312 799.960938 789.011719 782.304688 773.132812 775.691406 Z M 825.511719 811.09375 C 863.457031 794.632812 902.289062 779.175781 941.429688 766.167969 C 915.554688 778.109375 836.902344 812.226562 823.894531 818.15625 C 821.964844 818.828125 821.285156 818.0625 821.898438 815.894531 C 821.445312 813.273438 823.3125 812.054688 825.511719 811.09375 Z M 822.644531 809.171875 C 817.691406 811.730469 821.359375 819.378906 820.34375 824.015625 C 863.707031 806.273438 908.597656 790.382812 953.78125 778.734375 C 910.734375 795.894531 865.679688 808.957031 823.484375 828.523438 C 821.585938 828.71875 821.207031 830.550781 820.3125 831.933594 C 841.59375 827.941406 862 818.308594 883.359375 814.40625 C 860.351562 825.773438 833.546875 830.53125 812.300781 844.917969 C 806.386719 849.652344 801.847656 856.296875 795.34375 860.136719 C 797.78125 854.90625 802.417969 850.96875 805.785156 846.300781 C 817.59375 828.136719 812.613281 802.097656 800.898438 785.023438 C 810.132812 783.480469 818.542969 778.195312 827.660156 776.773438 C 824.8125 779.910156 807.5625 783.976562 810.777344 788.367188 C 819.308594 808.105469 813.441406 799.585938 830.226562 795.605469 C 827.660156 799.054688 822.375 799.789062 819.742188 803.261719 C 863.535156 783.242188 907.757812 758.972656 955.195312 749.535156 C 943.40625 754.089844 854.246094 791.882812 822.644531 809.171875 Z M 818.769531 791.722656 C 817.347656 792.28125 815.859375 793.039062 814.703125 791.042969 C 810.855469 784.925781 825.359375 783.683594 828.921875 781.160156 C 876.585938 762.902344 923.558594 742.394531 971.871094 726.035156 C 971.914062 726.171875 971.957031 726.3125 971.988281 726.453125 C 962.863281 731.113281 860.773438 774.9375 818.769531 791.722656 Z M 1015.746094 785.367188 C 941.625 813.488281 868.550781 847.582031 794.210938 873.609375 C 862.550781 841.640625 932.617188 812.484375 1002.277344 783.1875 C 1007.34375 780.96875 1007.195312 780.792969 1005.132812 775.84375 C 996.785156 754.929688 995.082031 731.351562 1004.648438 710.695312 C 1002.609375 734.359375 1000.710938 761.183594 1017.0625 780.480469 C 1019.726562 783.902344 1019.996094 783.695312 1015.746094 785.367188 Z M 1015.746094 785.367188 " fill-opacity="1" fill-rule="nonzero"/></g><path fill="#0a0a0a" d="M 1022.898438 522.628906 C 995.523438 515.972656 1002.394531 550.457031 1001.8125 566.894531 C 1001.953125 566.894531 1002.09375 566.894531 1002.234375 566.894531 C 1001.953125 582.804688 1004.132812 598.648438 1005.113281 614.527344 C 1005.210938 615.820312 1004.90625 617.773438 1006.957031 617.492188 C 1010.324219 612.226562 1006.125 604.085938 1007.539062 597.992188 C 1010.820312 604 1008.660156 612.605469 1013.914062 617.289062 C 1017.011719 613.5 1014.183594 608.710938 1014.980469 604.355469 C 1016.191406 607.472656 1016.449219 610.890625 1017.515625 614.050781 C 1021.796875 620.039062 1022.304688 609.414062 1022.339844 606.597656 C 1023.460938 609.230469 1023.082031 612.996094 1025.445312 614.785156 C 1027.34375 612.59375 1025.660156 609.121094 1026.5 606.425781 C 1028.335938 609.476562 1028 613.535156 1030.363281 616.242188 C 1033.425781 613.640625 1030.621094 609.402344 1031.710938 606.039062 C 1033.273438 608.085938 1033.589844 610.828125 1034.808594 613.082031 C 1039.960938 617.878906 1038.765625 606.480469 1038.648438 603.792969 C 1039.867188 606.46875 1040.125 609.78125 1043.113281 611.105469 C 1043.910156 606.046875 1039.089844 601.324219 1040.339844 596.460938 C 1043.382812 601.484375 1043.757812 608.507812 1048.710938 612.066406 C 1052.5625 605.585938 1045.292969 598.261719 1046.554688 591.355469 C 1049.714844 596.988281 1050.273438 604.117188 1054.921875 608.808594 C 1051.527344 585.164062 1040.566406 561.988281 1034.300781 538.613281 C 1032.011719 532.5625 1029.5 525.066406 1022.898438 522.628906 Z M 1022.898438 522.628906 " fill-opacity="1" fill-rule="nonzero"/><path fill="#0a0a0a" d="M 993.722656 502.835938 C 993.441406 526.261719 1030.933594 525.03125 1030.136719 503.203125 C 1030.296875 478.933594 993.765625 478.566406 993.722656 502.835938 Z M 993.722656 502.835938 " fill-opacity="1" fill-rule="nonzero"/><path fill="#0a0a0a" d="M 493.167969 759.621094 C 484.808594 759.375 466.632812 749.644531 464.261719 762.328125 C 468.707031 759.878906 473.050781 758.53125 478.046875 759.773438 C 497.105469 762.328125 516.175781 767.375 535.246094 768.605469 C 521.386719 765.035156 507.167969 762.683594 493.167969 759.621094 Z M 493.167969 759.621094 " fill-opacity="1" fill-rule="nonzero"/><g transform="matrix(1, 0, 0, 1, 436, 888)"><g clip-path="url(#1056ea343e)"><g fill="#0a0a0a" fill-opacity="1"><g transform="translate(1.776637, 111.448546)"><g><path d="M 70.359375 -7.390625 L 70.359375 0 L 13.171875 0 L 13.171875 -80.875 L 68.625 -80.875 L 68.625 -73.484375 L 21.71875 -73.484375 L 21.71875 -44.703125 L 63.546875 -44.703125 L 63.546875 -37.4375 L 21.71875 -37.4375 L 21.71875 -7.390625 Z M 70.359375 -7.390625 "/></g></g></g><g fill="#0a0a0a" fill-opacity="1"><g transform="translate(94.068284, 111.448546)"><g><path d="M 35.46875 0.6875 C 29.457031 0.6875 23.695312 -0.269531 18.1875 -2.1875 C 12.6875 -4.113281 8.4375 -6.65625 5.4375 -9.8125 L 8.78125 -16.40625 C 11.707031 -13.476562 15.597656 -11.109375 20.453125 -9.296875 C 25.304688 -7.484375 30.3125 -6.578125 35.46875 -6.578125 C 42.707031 -6.578125 48.132812 -7.90625 51.75 -10.5625 C 55.375 -13.226562 57.1875 -16.675781 57.1875 -20.90625 C 57.1875 -24.144531 56.203125 -26.726562 54.234375 -28.65625 C 52.273438 -30.582031 49.867188 -32.0625 47.015625 -33.09375 C 44.171875 -34.132812 40.207031 -35.273438 35.125 -36.515625 C 29.039062 -38.046875 24.1875 -39.523438 20.5625 -40.953125 C 16.945312 -42.378906 13.847656 -44.554688 11.265625 -47.484375 C 8.679688 -50.410156 7.390625 -54.378906 7.390625 -59.390625 C 7.390625 -63.460938 8.46875 -67.175781 10.625 -70.53125 C 12.78125 -73.882812 16.09375 -76.5625 20.5625 -78.5625 C 25.03125 -80.5625 30.578125 -81.5625 37.203125 -81.5625 C 41.828125 -81.5625 46.351562 -80.925781 50.78125 -79.65625 C 55.207031 -78.382812 59.035156 -76.632812 62.265625 -74.40625 L 59.390625 -67.578125 C 55.992188 -69.816406 52.367188 -71.492188 48.515625 -72.609375 C 44.671875 -73.722656 40.898438 -74.28125 37.203125 -74.28125 C 30.117188 -74.28125 24.785156 -72.910156 21.203125 -70.171875 C 17.617188 -67.441406 15.828125 -63.921875 15.828125 -59.609375 C 15.828125 -56.378906 16.804688 -53.78125 18.765625 -51.8125 C 20.734375 -49.851562 23.195312 -48.351562 26.15625 -47.3125 C 29.125 -46.269531 33.113281 -45.132812 38.125 -43.90625 C 44.050781 -42.4375 48.84375 -40.988281 52.5 -39.5625 C 56.164062 -38.144531 59.269531 -35.988281 61.8125 -33.09375 C 64.351562 -30.207031 65.625 -26.300781 65.625 -21.375 C 65.625 -17.289062 64.523438 -13.570312 62.328125 -10.21875 C 60.128906 -6.875 56.757812 -4.21875 52.21875 -2.25 C 47.675781 -0.289062 42.09375 0.6875 35.46875 0.6875 Z M 35.46875 0.6875 "/></g></g></g><g fill="#0a0a0a" fill-opacity="1"><g transform="translate(180.122901, 111.448546)"><g><path d="M 43.4375 -80.875 C 53.757812 -80.875 61.847656 -78.40625 67.703125 -73.46875 C 73.554688 -68.539062 76.484375 -61.765625 76.484375 -53.140625 C 76.484375 -44.515625 73.554688 -37.753906 67.703125 -32.859375 C 61.847656 -27.972656 53.757812 -25.53125 43.4375 -25.53125 L 21.71875 -25.53125 L 21.71875 0 L 13.171875 0 L 13.171875 -80.875 Z M 43.203125 -33.046875 C 51.210938 -33.046875 57.335938 -34.796875 61.578125 -38.296875 C 65.816406 -41.804688 67.9375 -46.753906 67.9375 -53.140625 C 67.9375 -59.691406 65.816406 -64.71875 61.578125 -68.21875 C 57.335938 -71.726562 51.210938 -73.484375 43.203125 -73.484375 L 21.71875 -73.484375 L 21.71875 -33.046875 Z M 43.203125 -33.046875 "/></g></g></g><g fill="#0a0a0a" fill-opacity="1"><g transform="translate(278.074066, 111.448546)"><g><path d="M 70.359375 -7.390625 L 70.359375 0 L 13.171875 0 L 13.171875 -80.875 L 68.625 -80.875 L 68.625 -73.484375 L 21.71875 -73.484375 L 21.71875 -44.703125 L 63.546875 -44.703125 L 63.546875 -37.4375 L 21.71875 -37.4375 L 21.71875 -7.390625 Z M 70.359375 -7.390625 "/></g></g></g><g fill="#0a0a0a" fill-opacity="1"><g transform="translate(370.365713, 111.448546)"><g><path d="M 70.359375 -7.390625 L 70.359375 0 L 13.171875 0 L 13.171875 -80.875 L 68.625 -80.875 L 68.625 -73.484375 L 21.71875 -73.484375 L 21.71875 -44.703125 L 63.546875 -44.703125 L 63.546875 -37.4375 L 21.71875 -37.4375 L 21.71875 -7.390625 Z M 70.359375 -7.390625 "/></g></g></g><g fill="#0a0a0a" fill-opacity="1"><g transform="translate(462.65736, 111.448546)"><g><path d="M 71.515625 -7.390625 L 71.515625 0 L 5.203125 0 L 5.203125 -5.890625 L 58.8125 -73.484375 L 6 -73.484375 L 6 -80.875 L 70.125 -80.875 L 70.125 -74.984375 L 16.640625 -7.390625 Z M 71.515625 -7.390625 "/></g></g></g><g fill="#0a0a0a" fill-opacity="1"><g transform="translate(552.870028, 111.448546)"><g><path d="M 40.890625 -27.953125 L 40.890625 0 L 32.46875 0 L 32.46875 -27.953125 L 0.109375 -80.875 L 9.25 -80.875 L 36.96875 -35.46875 L 64.703125 -80.875 L 73.25 -80.875 Z M 40.890625 -27.953125 "/></g></g></g></g></g><g transform="matrix(1, 0, 0, 1, 518, 1025)"><g clip-path="url(#a9e3f0095d)"><g fill="#0a0a0a" fill-opacity="1"><g transform="translate(3.281893, 45.276021)"><g><path d="M 5.21875 -32.0625 L 8.609375 -32.0625 L 8.609375 -2.9375 L 26.578125 -2.9375 L 26.578125 0 L 5.21875 0 Z M 5.21875 -32.0625 "/></g></g></g><g fill="#0a0a0a" fill-opacity="1"><g transform="translate(60.268385, 45.276021)"><g><path d="M 27.90625 -2.9375 L 27.90625 0 L 5.21875 0 L 5.21875 -32.0625 L 27.21875 -32.0625 L 27.21875 -29.140625 L 8.609375 -29.140625 L 8.609375 -17.734375 L 25.203125 -17.734375 L 25.203125 -14.84375 L 8.609375 -14.84375 L 8.609375 -2.9375 Z M 27.90625 -2.9375 "/></g></g></g><g fill="#0a0a0a" fill-opacity="1"><g transform="translate(120.918633, 45.276021)"><g><path d="M 25.328125 -8.5625 L 7.46875 -8.5625 L 3.625 0 L 0.09375 0 L 14.75 -32.0625 L 18.09375 -32.0625 L 32.75 0 L 29.1875 0 Z M 24.09375 -11.3125 L 16.40625 -28.546875 L 8.703125 -11.3125 Z M 24.09375 -11.3125 "/></g></g></g><g fill="#0a0a0a" fill-opacity="1"><g transform="translate(183.767154, 45.276021)"><g><path d="M 27.125 0 L 19.796875 -10.3125 C 18.960938 -10.21875 18.101562 -10.171875 17.21875 -10.171875 L 8.609375 -10.171875 L 8.609375 0 L 5.21875 0 L 5.21875 -32.0625 L 17.21875 -32.0625 C 21.3125 -32.0625 24.519531 -31.082031 26.84375 -29.125 C 29.164062 -27.175781 30.328125 -24.492188 30.328125 -21.078125 C 30.328125 -18.566406 29.691406 -16.445312 28.421875 -14.71875 C 27.160156 -13 25.351562 -11.757812 23 -11 L 30.828125 0 Z M 17.140625 -13.0625 C 20.304688 -13.0625 22.726562 -13.757812 24.40625 -15.15625 C 26.09375 -16.5625 26.9375 -18.535156 26.9375 -21.078125 C 26.9375 -23.671875 26.09375 -25.660156 24.40625 -27.046875 C 22.726562 -28.441406 20.304688 -29.140625 17.140625 -29.140625 L 8.609375 -29.140625 L 8.609375 -13.0625 Z M 17.140625 -13.0625 "/></g></g></g><g fill="#0a0a0a" fill-opacity="1"><g transform="translate(246.89047, 45.276021)"><g><path d="M 32.015625 -32.0625 L 32.015625 0 L 29.234375 0 L 8.609375 -26.015625 L 8.609375 0 L 5.21875 0 L 5.21875 -32.0625 L 8.015625 -32.0625 L 28.671875 -6.046875 L 28.671875 -32.0625 Z M 32.015625 -32.0625 "/></g></g></g><g fill="#0a0a0a" fill-opacity="1"><g transform="translate(314.135491, 45.276021)"><g><path d="M 5.21875 -32.0625 L 8.609375 -32.0625 L 8.609375 0 L 5.21875 0 Z M 5.21875 -32.0625 "/></g></g></g><g fill="#0a0a0a" fill-opacity="1"><g transform="translate(357.978215, 45.276021)"><g><path d="M 32.015625 -32.0625 L 32.015625 0 L 29.234375 0 L 8.609375 -26.015625 L 8.609375 0 L 5.21875 0 L 5.21875 -32.0625 L 8.015625 -32.0625 L 28.671875 -6.046875 L 28.671875 -32.0625 Z M 32.015625 -32.0625 "/></g></g></g><g fill="#0a0a0a" fill-opacity="1"><g transform="translate(425.223236, 45.276021)"><g><path d="M 27.8125 -16.03125 L 31.0625 -16.03125 L 31.0625 -3.796875 C 29.5625 -2.484375 27.785156 -1.472656 25.734375 -0.765625 C 23.691406 -0.0664062 21.539062 0.28125 19.28125 0.28125 C 16.082031 0.28125 13.195312 -0.421875 10.625 -1.828125 C 8.0625 -3.234375 6.046875 -5.179688 4.578125 -7.671875 C 3.109375 -10.160156 2.375 -12.945312 2.375 -16.03125 C 2.375 -19.113281 3.109375 -21.898438 4.578125 -24.390625 C 6.046875 -26.878906 8.0625 -28.828125 10.625 -30.234375 C 13.195312 -31.640625 16.097656 -32.34375 19.328125 -32.34375 C 21.773438 -32.34375 24.019531 -31.953125 26.0625 -31.171875 C 28.113281 -30.390625 29.84375 -29.238281 31.25 -27.71875 L 29.140625 -25.5625 C 26.597656 -28.0625 23.375 -29.3125 19.46875 -29.3125 C 16.875 -29.3125 14.53125 -28.738281 12.4375 -27.59375 C 10.34375 -26.457031 8.703125 -24.875 7.515625 -22.84375 C 6.328125 -20.8125 5.734375 -18.539062 5.734375 -16.03125 C 5.734375 -13.53125 6.328125 -11.269531 7.515625 -9.25 C 8.703125 -7.238281 10.332031 -5.648438 12.40625 -4.484375 C 14.488281 -3.328125 16.828125 -2.75 19.421875 -2.75 C 22.722656 -2.75 25.519531 -3.570312 27.8125 -5.21875 Z M 27.8125 -16.03125 "/></g></g></g></g></g></svg>